<svg width="49" height="48" viewBox="0 0 49 48" fill="none" xmlns="http://www.w3.org/2000/svg">
<path d="M42.6959 20.16C42.483 20.1602 42.2744 20.0999 42.0944 19.9863C41.9143 19.8727 41.7703 19.7103 41.6788 19.518C40.0299 16.0118 37.3967 13.0609 34.1001 11.025C33.8457 10.8691 33.6637 10.6184 33.594 10.3283C33.5596 10.1846 33.5537 10.0355 33.5769 9.8896C33.6 9.74367 33.6516 9.60372 33.7289 9.47775C33.8061 9.35178 33.9073 9.24225 34.0269 9.15542C34.1464 9.06859 34.2819 9.00615 34.4256 8.97168C34.7158 8.90205 35.0217 8.95055 35.2761 9.1065C38.9454 11.3697 41.877 14.6516 43.7136 18.552C43.7952 18.7234 43.8322 18.9127 43.821 19.1022C43.8097 19.2918 43.7507 19.4754 43.6494 19.6359C43.5481 19.7965 43.4079 19.9289 43.2417 20.0206C43.0754 20.1124 42.8887 20.1606 42.6988 20.1607L42.6959 20.16ZM5.47935 20.085C5.29014 20.0848 5.10403 20.0369 4.93824 19.9457C4.77246 19.8545 4.63235 19.723 4.53089 19.5633C4.42943 19.4036 4.36989 19.2208 4.35778 19.032C4.34566 18.8432 4.38137 18.6544 4.4616 18.483C5.74114 15.7502 7.57794 13.3151 9.8541 11.334C10.8285 10.4966 11.8725 9.74389 12.9748 9.084C13.2313 8.93143 13.5379 8.88701 13.8272 8.9605C14.1164 9.03399 14.3647 9.21938 14.5172 9.47587C14.6698 9.73237 14.7142 10.039 14.6407 10.3282C14.5672 10.6175 14.3818 10.8657 14.1253 11.0182C13.1368 11.6104 12.2004 12.2856 11.3263 13.0365C9.28947 14.8107 7.64562 16.9907 6.5001 19.437C6.40929 19.631 6.26499 19.795 6.08417 19.9098C5.90336 20.0246 5.69353 20.0854 5.47935 20.085Z" fill="#62D84E"/>
<path d="M43.625 39H25.25V33.75H43.625C43.9234 33.75 44.2095 33.6315 44.4205 33.4205C44.6315 33.2095 44.75 32.9234 44.75 32.625C44.75 32.3266 44.6315 32.0405 44.4205 31.8295C44.2095 31.6185 43.9234 31.5 43.625 31.5C42.3326 31.4984 41.0935 30.9843 40.1796 30.0704C39.2657 29.1565 38.7516 27.9174 38.75 26.625C38.7443 22.944 37.3516 19.4003 34.8496 16.7003C32.3476 14.0003 28.9199 12.3424 25.25 12.057V11.5785C25.2573 10.6899 25.6167 9.84053 26.2494 9.21657C26.8821 8.5926 27.7364 8.24501 28.625 8.25H30.125C30.4234 8.25 30.7095 8.13147 30.9205 7.9205C31.1315 7.70952 31.25 7.42337 31.25 7.125C31.25 6.82663 31.1315 6.54048 30.9205 6.3295C30.7095 6.11853 30.4234 6 30.125 6H18.125C17.8266 6 17.5405 6.11853 17.3295 6.3295C17.1185 6.54048 17 6.82663 17 7.125C17 7.42337 17.1185 7.70952 17.3295 7.9205C17.5405 8.13147 17.8266 8.25 18.125 8.25H19.625C20.5136 8.24501 21.3679 8.5926 22.0006 9.21657C22.6333 9.84053 22.9927 10.6899 23 11.5785V12.057C19.3301 12.3424 15.9024 14.0003 13.4004 16.7003C10.8984 19.4003 9.50571 22.944 9.5 26.625C9.49841 27.9174 8.98429 29.1565 8.07039 30.0704C7.1565 30.9843 5.91744 31.4984 4.625 31.5C4.32663 31.5 4.04048 31.6185 3.8295 31.8295C3.61853 32.0405 3.5 32.3266 3.5 32.625C3.5 32.9234 3.61853 33.2095 3.8295 33.4205C4.04048 33.6315 4.32663 33.75 4.625 33.75H23V39H4.625C4.32663 39 4.04048 39.1185 3.8295 39.3295C3.61853 39.5405 3.5 39.8266 3.5 40.125C3.5 40.4234 3.61853 40.7095 3.8295 40.9205C4.04048 41.1315 4.32663 41.25 4.625 41.25H43.625C43.9234 41.25 44.2095 41.1315 44.4205 40.9205C44.6315 40.7095 44.75 40.4234 44.75 40.125C44.75 39.8266 44.6315 39.5405 44.4205 39.3295C44.2095 39.1185 43.9234 39 43.625 39ZM11.75 26.625C11.75 23.3429 13.0538 20.1953 15.3746 17.8746C17.6953 15.5538 20.8429 14.25 24.125 14.25C27.4071 14.25 30.5547 15.5538 32.8754 17.8746C35.1962 20.1953 36.5 23.3429 36.5 26.625C36.4987 28.4372 37.1904 30.1813 38.4335 31.5H9.8165C11.0596 30.1813 11.7513 28.4372 11.75 26.625Z" fill="black"/>
</svg>
