<svg width="48" height="48" viewBox="0 0 48 48" fill="none" xmlns="http://www.w3.org/2000/svg">
<path d="M28.125 1.5C25.0513 1.49805 22.0305 2.30052 19.363 3.82766C16.6955 5.35481 14.4741 7.55345 12.9195 10.2051C11.365 12.8567 10.5314 15.869 10.5016 18.9426C10.4719 22.0162 11.247 25.044 12.75 27.7253L2.52901 37.9447C1.63042 38.8432 1.12556 40.0619 1.12549 41.3326C1.12542 42.6033 1.63014 43.822 2.52863 44.7206C3.42712 45.6192 4.64577 46.1241 5.91649 46.1241C7.18721 46.1242 8.40592 45.6195 9.30451 44.721L19.5248 34.5C21.8754 35.8174 24.4968 36.5783 27.1875 36.7242C29.8783 36.87 32.5666 36.397 35.0459 35.3414C37.5252 34.2858 39.7294 32.6758 41.4892 30.6351C43.2489 28.5944 44.5173 26.1774 45.1969 23.5698C45.8765 20.9623 45.9491 18.2336 45.4092 15.5936C44.8693 12.9536 43.7312 10.4725 42.0825 8.34114C40.4338 6.20974 38.3183 4.48476 35.8987 3.29879C33.479 2.11283 30.8197 1.49747 28.125 1.5ZM7.71376 43.1302C7.2298 43.5927 6.58616 43.8508 5.91676 43.8508C5.24735 43.8508 4.60371 43.5927 4.11976 43.1302C3.88364 42.8943 3.69633 42.6142 3.56854 42.3059C3.44074 41.9975 3.37496 41.667 3.37496 41.3333C3.37496 40.9995 3.44074 40.669 3.56854 40.3606C3.69633 40.0523 3.88364 39.7722 4.11976 39.5363L14.0003 29.6558C15.02 31.0197 16.2303 32.2301 17.5943 33.2498L7.71376 43.1302ZM28.125 34.5C25.0841 34.5 22.1115 33.5983 19.5831 31.9088C17.0547 30.2194 15.0841 27.8182 13.9204 25.0088C12.7567 22.1993 12.4522 19.1079 13.0454 16.1255C13.6387 13.143 15.103 10.4035 17.2532 8.25323C19.4035 6.103 22.143 4.63867 25.1255 4.04543C28.1079 3.45218 31.1993 3.75665 34.0088 4.92035C36.8182 6.08405 39.2194 8.0547 40.9089 10.5831C42.5983 13.1115 43.5 16.0841 43.5 19.125C43.4954 23.2013 41.8741 27.1093 38.9917 29.9917C36.1093 32.8741 32.2013 34.4954 28.125 34.5Z" fill="black"/>
<path d="M21.4314 14.301L17.4106 18.0248C17.2591 18.1652 17.1382 18.3354 17.0555 18.5247C16.9729 18.714 16.9302 18.9184 16.9302 19.125C16.9302 19.3316 16.9729 19.536 17.0555 19.7253C17.1382 19.9146 17.2591 20.0848 17.4106 20.2252L21.4314 23.949C23.2523 25.6358 25.643 26.573 28.1251 26.573C30.6073 26.573 32.998 25.6358 34.8189 23.949L38.8396 20.2252C38.9912 20.0848 39.1121 19.9146 39.1948 19.7253C39.2774 19.536 39.3201 19.3316 39.3201 19.125C39.3201 18.9184 39.2774 18.714 39.1948 18.5247C39.1121 18.3354 38.9912 18.1652 38.8396 18.0248L34.8189 14.301C32.9978 12.6145 30.6072 11.6775 28.1251 11.6775C25.6431 11.6775 23.2525 12.6145 21.4314 14.301ZM28.1251 22.125C27.2736 22.178 26.4356 21.8925 25.7936 21.3306C25.1515 20.7688 24.7573 19.976 24.6969 19.125C24.7573 18.274 25.1515 17.4812 25.7936 16.9194C26.4356 16.3575 27.2736 16.072 28.1251 16.125C28.9767 16.072 29.8147 16.3575 30.4567 16.9194C31.0988 17.4812 31.4929 18.274 31.5534 19.125C31.4929 19.976 31.0988 20.7688 30.4567 21.3306C29.8147 21.8925 28.9767 22.178 28.1251 22.125Z" fill="#62D84E"/>
</svg>
