<svg width="48" height="48" viewBox="0 0 48 48" fill="none" xmlns="http://www.w3.org/2000/svg">
<g clip-path="url(#clip0_405_549)">
<path d="M43.875 3.75H3.375C2.4802 3.75099 1.62233 4.10689 0.989611 4.73961C0.356891 5.37233 0.00099257 6.2302 0 7.125L0 32.625C0.00099257 33.5198 0.356891 34.3777 0.989611 35.0104C1.62233 35.6431 2.4802 35.999 3.375 36H18V37.875C17.9984 39.1674 17.4843 40.4065 16.5704 41.3204C15.6565 42.2343 14.4174 42.7484 13.125 42.75C12.8266 42.75 12.5405 42.8685 12.3295 43.0795C12.1185 43.2905 12 43.5766 12 43.875C12 44.1734 12.1185 44.4595 12.3295 44.6705C12.5405 44.8815 12.8266 45 13.125 45H34.125C34.4234 45 34.7095 44.8815 34.9205 44.6705C35.1315 44.4595 35.25 44.1734 35.25 43.875C35.25 43.5766 35.1315 43.2905 34.9205 43.0795C34.7095 42.8685 34.4234 42.75 34.125 42.75C32.8326 42.7484 31.5935 42.2343 30.6796 41.3204C29.7657 40.4065 29.2516 39.1674 29.25 37.875V36H43.875C44.7698 35.999 45.6277 35.6431 46.2604 35.0104C46.8931 34.3777 47.249 33.5198 47.25 32.625V7.125C47.249 6.2302 46.8931 5.37233 46.2604 4.73961C45.6277 4.10689 44.7698 3.75099 43.875 3.75ZM28.9335 42.75H18.3165C19.5596 41.4313 20.2513 39.6872 20.25 37.875V36H27V37.875C26.9987 39.6872 27.6904 41.4313 28.9335 42.75ZM45 32.625C45 32.9234 44.8815 33.2095 44.6705 33.4205C44.4595 33.6315 44.1734 33.75 43.875 33.75H3.375C3.07663 33.75 2.79048 33.6315 2.5795 33.4205C2.36853 33.2095 2.25 32.9234 2.25 32.625V7.125C2.25 6.82663 2.36853 6.54048 2.5795 6.3295C2.79048 6.11853 3.07663 6 3.375 6H43.875C44.1734 6 44.4595 6.11853 44.6705 6.3295C44.8815 6.54048 45 6.82663 45 7.125V32.625Z" fill="black"/>
<path d="M16.5691 11.8575L16.5586 25.5825C16.5586 25.7281 16.6009 25.8705 16.6805 25.9925C16.7601 26.1144 16.8734 26.2105 17.0067 26.2691C17.14 26.3277 17.2874 26.3463 17.4311 26.3225C17.5747 26.2987 17.7083 26.2337 17.8156 26.1353L21.4208 22.827L24.7726 28.4408C24.8235 28.5251 24.8905 28.5985 24.9698 28.6569C25.0492 28.7153 25.1392 28.7575 25.2348 28.7811C25.3304 28.8048 25.4298 28.8093 25.5271 28.7945C25.6245 28.7797 25.718 28.7459 25.8023 28.695L28.2188 27.2362C28.3889 27.1334 28.5112 26.9673 28.5589 26.7744C28.6066 26.5814 28.5757 26.3775 28.4731 26.2073L25.1206 20.5935L29.7226 19.0867C29.8622 19.0411 29.9853 18.9554 30.0767 18.8403C30.168 18.7253 30.2236 18.5859 30.2365 18.4396C30.2493 18.2933 30.2189 18.1464 30.149 18.0172C30.0791 17.8879 29.9729 17.7821 29.8433 17.7127L17.6731 11.1967C17.5589 11.1356 17.4307 11.1051 17.3012 11.1082C17.1716 11.1113 17.0451 11.1479 16.9339 11.2144C16.8227 11.2809 16.7307 11.3752 16.6668 11.4879C16.6028 11.6006 16.5692 11.7279 16.5691 11.8575Z" fill="#62D84E"/>
</g>
<defs>
<clipPath id="clip0_405_549">
<rect width="48" height="48" fill="white"/>
</clipPath>
</defs>
</svg>
